<?xml version="1.0" standalone="no"?>
<!DOCTYPE svg PUBLIC "-//W3C//DTD SVG 1.1//EN" "http://www.w3.org/Graphics/SVG/1.1/DTD/svg11.dtd" >
<svg xmlns="http://www.w3.org/2000/svg" xmlns:xlink="http://www.w3.org/1999/xlink" version="1.1">
<metadata>
Created by FontForge 20170731 at Tue Nov 14 15:55:02 2023
 By Aleksey,,,
</metadata>
<defs>
<font id="Concrete-Regular" horiz-adv-x="1691" >
  <font-face 
    font-family="Regular"
    font-weight="400"
    font-stretch="normal"
    units-per-em="2048"
    panose-1="0 0 0 0 0 0 0 0 0 0"
    ascent="1536"
    descent="-512"
    x-height="1434"
    cap-height="1434"
    bbox="6 -348 1878 2914"
    underline-thickness="102"
    underline-position="-358"
    unicode-range="U+0021-201A"
  />
<missing-glyph horiz-adv-x="681" 
 />
    <glyph glyph-name=".notdef" horiz-adv-x="681" 
 />
    <glyph glyph-name=".null" horiz-adv-x="0" 
 />
    <glyph glyph-name="nonmarkingreturn" horiz-adv-x="682" 
 />
    <glyph glyph-name="exclam" unicode="!" horiz-adv-x="520" 
d="M152 0v199h198l2 -199h-200zM152 344v1090h198v-1090h-198z" />
    <glyph glyph-name="quotedbl" unicode="&#x22;" horiz-adv-x="700" 
d="M41 600l113 424h198l-112 -424h-199zM352 600l113 424h199l-113 -424h-199z" />
    <glyph glyph-name="numbersign" unicode="#" horiz-adv-x="1593" 
d="M707 795l-80 -174h254l77 174h-251zM49 434l88 187h285l80 174h-330l90 186h324l207 453h204l-206 -453h253l205 453h207l-207 -453h238l-90 -186h-234l-80 -174h279l-88 -187h-275l-198 -434h-203l197 434h-254l-199 -434h-203l199 434h-289z" />
    <glyph glyph-name="quotesingle" unicode="'" horiz-adv-x="456" 
d="M289 1010h-199l113 424h198z" />
    <glyph glyph-name="parenleft" unicode="(" horiz-adv-x="675" 
d="M338 643q0 -406 264 -790h-225q-111 153 -174.5 363t-63.5 427t63.5 427.5t174.5 363.5h225q-264 -392 -264 -791z" />
    <glyph glyph-name="parenright" unicode=")" horiz-adv-x="679" 
d="M371 643q0 398 -265 791h226q111 -153 174 -363t63 -428t-63 -427.5t-174 -362.5h-226q265 385 265 790z" />
    <glyph glyph-name="asterisk" unicode="*" horiz-adv-x="1069" 
d="M295 776l-139 142l235 233l-233 233l141 142l233 -236l234 232l141 -140l-235 -233l231 -236l-139 -139l-234 236z" />
    <glyph glyph-name="plus" unicode="+" horiz-adv-x="1048" 
d="M432 823l2 330h199l-2 -332h330v-198h-332v-330h-199v332h-330v198h332z" />
    <glyph glyph-name="comma" unicode="," horiz-adv-x="405" 
d="M47 -283l113 424h200l-112 -424h-201z" />
    <glyph glyph-name="hyphen" unicode="-" horiz-adv-x="1183" 
d="M92 823l993 -2v-196h-993v198z" />
    <glyph glyph-name="period" unicode="." horiz-adv-x="372" 
d="M84 0v199h199v-199h-199z" />
    <glyph glyph-name="slash" unicode="/" horiz-adv-x="858" 
d="M668 1434h204l-653 -1434h-203z" />
    <glyph glyph-name="zero" unicode="0" horiz-adv-x="1118" 
d="M1051 723q0 -151 -28.5 -276t-76 -210t-111.5 -143.5t-134.5 -85t-145.5 -26.5q-102 0 -192.5 53.5t-157 149t-105.5 235t-39 303.5q0 343 140 537t358 194q144 0 256 -92.5t174 -259t62 -379.5zM260 719q0 -230 85.5 -384.5t209.5 -154.5q132 0 214.5 148.5t82.5 390.5
q0 94 -17 185t-50.5 171.5t-93 130t-136.5 49.5q-75 0 -133 -45.5t-92.5 -122.5t-52 -170.5t-17.5 -197.5z" />
    <glyph glyph-name="one" unicode="1" horiz-adv-x="921" 
d="M41 647v199q162 0 277 38.5t183.5 115.5t100 183.5t31.5 250.5h198v-1434h-198v848q-201 -201 -592 -201z" />
    <glyph glyph-name="two" unicode="2" horiz-adv-x="1005" 
d="M905 199v-199h-774l2 846h576v391h-576v197h772v-787h-575v-448h575z" />
    <glyph glyph-name="three" unicode="3" horiz-adv-x="1026" 
d="M209 647v199l403 389h-485v199h774v-201l-405 -387h405v-846h-774v199l578 2v446h-496z" />
    <glyph glyph-name="four" unicode="4" horiz-adv-x="1153" 
d="M768 664h-670v198q10 0 26 10t38.5 32t45.5 53t46 79t40.5 104t28.5 132.5t11 161.5h198q0 -347 -149 -572h387v572h199v-1434h-201v664z" />
    <glyph glyph-name="five" unicode="5" horiz-adv-x="1073" 
d="M903 0h-774v199h576v448h-576v787h772v-199h-575v-389h575z" />
    <glyph glyph-name="six" unicode="6" horiz-adv-x="1118" 
d="M748 647h-379v-448h381zM946 0h-774v1434h774v-199h-577v-389h577v-846z" />
    <glyph glyph-name="seven" unicode="7" horiz-adv-x="935" 
d="M631 1235h-590v199h827v-201q-59 -90 -99.5 -158.5t-89 -163t-81 -186.5t-62.5 -204t-46.5 -243t-20.5 -278h-199q-3 344 100 671.5t261 563.5z" />
    <glyph glyph-name="eight" unicode="8" horiz-adv-x="1118" 
d="M748 1235h-379v-389h379v389zM748 647h-379v-448h381zM172 0v1434h774v-1434h-774z" />
    <glyph glyph-name="nine" unicode="9" horiz-adv-x="1095" 
d="M348 786h379v449h-381zM150 1434h774v-1434h-774v199h577v389h-577v846z" />
    <glyph glyph-name="colon" unicode=":" horiz-adv-x="452" 
d="M113 0v199h198l2 -199h-200zM115 825v199h198v-199h-198z" />
    <glyph glyph-name="semicolon" unicode=";" horiz-adv-x="653" 
d="M125 -283l115 424h200l-112 -424h-203zM242 825v199h198v-199h-198z" />
    <glyph glyph-name="less" unicode="&#x3c;" horiz-adv-x="1210" 
d="M307 731l813 -248v-207l-1011 304v346l1011 307v-207l-813 -248v-47z" />
    <glyph glyph-name="equal" unicode="=" horiz-adv-x="1048" 
d="M72 668l860 -4v-199l-860 4v199zM72 1016l860 -4v-199l-860 4v199z" />
    <glyph glyph-name="greater" unicode="&#x3e;" horiz-adv-x="1294" 
d="M139 276v207l813 248v47l-813 248v207l1012 -307v-346z" />
    <glyph glyph-name="question" unicode="?" horiz-adv-x="970" 
d="M268 0v199h199v-199h-199zM240 1065h-199q0 190 116.5 307t301.5 117q188 0 309 -117t121 -291q0 -64 -17.5 -116t-51 -92t-67 -70t-80 -70t-75.5 -71q-128 -137 -131 -340h-199q0 278 172 462q33 34 86.5 79t84 72t55 70t24.5 91q0 85 -60.5 139.5t-164.5 54.5
q-106 0 -166 -60t-59 -165z" />
    <glyph glyph-name="at" unicode="@" horiz-adv-x="1677" 
d="M786 629v-117l213 -2q-18 55 -24 119h-189zM653 379h-2l2 385h320v106h-320v156l477 -2v-8q1 -39 -0.5 -100.5t-1.5 -77.5q0 -334 103 -334q47 0 83 27.5t55 70.5t28.5 85.5t9.5 80.5q0 138 -69.5 257.5t-188.5 190t-258 70.5q-241 0 -399 -158t-158 -399q0 -134 47 -244
t130.5 -183t197.5 -112.5t247 -39.5q120 0 183 32v-176q-89 -24 -221 -24q-166 12 -303 67t-237 147.5t-155 229.5t-55 307q0 204 94 368.5t259.5 257.5t369.5 93q139 0 265.5 -54.5t217.5 -146.5t145 -218.5t54 -264.5q0 -54 -14 -112.5t-43.5 -115t-69 -101t-95 -72
t-118.5 -27.5q-79 0 -135 37h-445v2z" />
    <glyph glyph-name="A" unicode="A" horiz-adv-x="1366" 
d="M1294 0h-204l-127 455h-545l-125 -455h-209l401 1434h410zM635 1235l-162 -582h434l-162 582h-110z" />
    <glyph glyph-name="B" unicode="B" horiz-adv-x="1206" 
d="M1087 418q0 -84 -36 -151t-99.5 -111t-139 -75t-167.5 -47.5t-169.5 -24t-160.5 -9.5h-198v1434h198q72 -1 140.5 -7.5t147 -21t142.5 -41t118 -64t84 -94t30 -127.5q0 -209 -262 -301q372 -91 372 -360zM780 1067q0 56 -40 97t-110 64t-147.5 33.5t-167.5 12.5v-410
q85 2 159.5 11.5t147.5 31t115.5 62.5t42.5 98zM315 647v-483q81 1 153.5 6.5t152.5 22t137.5 41.5t95 68.5t37.5 100.5q0 68 -51 117.5t-138 75.5t-182.5 38t-204.5 13z" />
    <glyph glyph-name="C" unicode="C" horiz-adv-x="1159" 
d="M1004 199v-199q-497 0 -722 170.5t-225 548.5q0 375 223 544t721 169v-199q-394 0 -569.5 -120t-175.5 -388q0 -263 174 -385t574 -141z" />
    <glyph glyph-name="D" unicode="D" horiz-adv-x="1185" 
d="M299 1233v-1034q98 4 168.5 10t137 18.5t111 30t84 45t63 64t41 87t25 112.5t7.5 143q0 108 -12.5 185.5t-43.5 137t-77.5 97t-120.5 61.5t-164.5 33t-218.5 10zM100 0v1432h189q117 0 206.5 -6.5t180.5 -26t157.5 -52t125.5 -86.5t95.5 -128t57.5 -178t21 -236
q0 -131 -20.5 -235.5t-57.5 -179.5t-96 -129.5t-125.5 -88t-158 -53t-181 -26.5t-205.5 -7h-189z" />
    <glyph glyph-name="E" unicode="E" horiz-adv-x="1175" 
d="M1038 1434v-199h-733v-387h600v-199h-600v-450h733v-199h-934v1434h934z" />
    <glyph glyph-name="F" unicode="F" horiz-adv-x="1087" 
d="M1038 1434v-199h-733v-387h600v-199h-600v-649h-201v1434h934z" />
    <glyph glyph-name="G" unicode="G" horiz-adv-x="1423" 
d="M733 770h578v-199q0 -158 -82 -290.5t-223.5 -208.5t-309.5 -76q-187 0 -336.5 94.5t-233 263t-83.5 379.5q0 325 191.5 522t508.5 197q168 0 273 -43v-199q-121 43 -279 43q-227 0 -361 -141.5t-134 -382.5q0 -236 126.5 -385t329.5 -149q175 0 293.5 108t118.5 268
h-377v199z" />
    <glyph glyph-name="H" unicode="H" horiz-adv-x="1286" 
d="M952 858v576h199v-1434h-199v659h-567v-659h-199v1434h199v-576h567z" />
    <glyph glyph-name="I" unicode="I" horiz-adv-x="483" 
d="M147 0v1434h199v-1434h-199z" />
    <glyph glyph-name="J" unicode="J" horiz-adv-x="1034" 
d="M53 455h199q0 -118 76 -201.5t184 -83.5q91 0 147.5 65t63.5 179v1020h199v-1020q0 -191 -118 -317t-294 -126q-124 0 -229.5 65t-166.5 176.5t-61 242.5z" />
    <glyph glyph-name="K" unicode="K" horiz-adv-x="1169" 
d="M1063 774v-774h-199v575h-518v-575h-199v1434h199v-516l518 516h281l-662 -660h580z" />
    <glyph glyph-name="L" unicode="L" horiz-adv-x="1167" 
d="M1055 199v-199h-957v1434h197v-1235h760z" />
    <glyph glyph-name="M" unicode="M" 
d="M668 1434l127 -740h57l92 740h404l235 -1434h-201l-202 1235h-60l-92 -741h-401l-125 741h-60l-147 -1235h-201l172 1434h402z" />
    <glyph glyph-name="N" unicode="N" horiz-adv-x="1251" 
d="M150 1434h405l313 -1235h50v1235h198v-1434h-389l-326 1235h-53v-1235h-198v1434z" />
    <glyph glyph-name="O" unicode="O" horiz-adv-x="1359" 
d="M1294 723q0 -151 -34 -276t-91.5 -210t-135 -143.5t-163 -85t-176.5 -26.5q-124 0 -233.5 53.5t-190 149t-127.5 235t-47 303.5q0 173 46 312.5t127.5 230.5t191 139.5t237.5 48.5q131 0 242 -54t189 -150t121.5 -232t43.5 -295zM305 723q0 -230 111.5 -379t277.5 -149
q164 0 278.5 148t114.5 380q0 92 -24.5 184t-70.5 171.5t-122.5 129t-171.5 49.5q-76 0 -141 -30t-111 -81.5t-78 -120t-47.5 -145t-15.5 -157.5z" />
    <glyph glyph-name="P" unicode="P" horiz-adv-x="991" 
d="M991 1016q0 -87 -31 -157.5t-85 -117t-119 -80.5t-143 -53t-145.5 -28t-137.5 -11v-569h-199v1434h137q65 0 118.5 -2t131.5 -12t139 -26t126 -47.5t108.5 -74.5t71.5 -108.5t28 -147.5zM330 1237v-471q64 0 123.5 5.5t123.5 21.5t111 41.5t77 68.5t30 98q0 67 -41.5 115
t-112 73t-147 36.5t-164.5 11.5z" />
    <glyph glyph-name="Q" unicode="Q" horiz-adv-x="1390" 
d="M295 723q0 -229 112 -378.5t277 -149.5q164 0 278.5 148t114.5 380q0 73 -14.5 147t-46.5 144t-76.5 124t-109 86.5t-140.5 32.5q-77 0 -142 -30t-111 -81.5t-78.5 -120t-48 -145t-15.5 -157.5zM1085 145l230 -229l-141 -141l-254 256q-113 -49 -236 -49
q-124 0 -233.5 53.5t-190 149t-127.5 235t-47 303.5q0 173 46.5 312.5t128 230.5t191.5 139.5t238 48.5q174 0 309.5 -92.5t210 -259t74.5 -379.5q0 -376 -199 -578z" />
    <glyph glyph-name="R" unicode="R" horiz-adv-x="1173" 
d="M373 1237v-471q64 0 123.5 5.5t123.5 21.5t111 41.5t77 68.5t30 98q0 67 -41.5 115t-112 73t-147 36.5t-164.5 11.5zM899 0l-401 578q-97 -9 -125 -9v-569h-199v1434h137q65 0 119 -2t132 -11.5t138.5 -26t126 -47.5t108.5 -73.5t71 -107.5t28 -146q0 -154 -89.5 -250.5
t-235.5 -144.5l428 -625h-238z" />
    <glyph glyph-name="S" unicode="S" horiz-adv-x="1179" 
d="M133 51v244q154 -109 379 -109q367 0 367 246q0 55 -42.5 95.5t-111 67t-150.5 51.5t-164.5 56.5t-151 72.5t-111 109.5t-42.5 159.5q0 186 160 302t408 116q104 0 210.5 -18.5t155.5 -46.5v-217q-55 35 -167 56t-209 21q-147 0 -252.5 -61t-104.5 -152q0 -42 26 -74
t70.5 -52.5t101.5 -38.5t120.5 -35.5t127 -38.5t120.5 -54t101.5 -75t70.5 -107t26 -147q0 -207 -153 -324.5t-396 -117.5q-193 0 -389 71z" />
    <glyph glyph-name="T" unicode="T" horiz-adv-x="1196" 
d="M55 1434h1071v-199h-426v-1235h-198v1235h-447v199z" />
    <glyph glyph-name="U" unicode="U" horiz-adv-x="1292" 
d="M934 1434h199v-1434h-992v1434h199v-1235h594v1235z" />
    <glyph glyph-name="V" unicode="V" horiz-adv-x="1388" 
d="M1053 1434h207l-400 -1434h-411l-402 1434h207l346 -1235h109z" />
    <glyph glyph-name="W" unicode="W" 
d="M627 940h401l92 -741h60l202 1235h201l-235 -1434h-404l-92 741h-57l-127 -741h-402l-172 1434h201l147 -1235h60z" />
    <glyph glyph-name="X" unicode="X" horiz-adv-x="1390" 
d="M88 1434h221l375 -553l373 553h225l-485 -717l485 -717h-223l-373 551l-375 -553l-221 2l483 717z" />
    <glyph glyph-name="Y" unicode="Y" horiz-adv-x="1306" 
d="M770 0h-199v700l-495 734h221l375 -553l372 553h224l-498 -738v-696z" />
    <glyph glyph-name="Z" unicode="Z" horiz-adv-x="1177" 
d="M1087 199v-199h-972l659 1235h-659v199h991l-660 -1235h641z" />
    <glyph glyph-name="bracketleft" unicode="[" horiz-adv-x="645" 
d="M121 1434h405v-199h-209v-1036h209v-199h-405v1434z" />
    <glyph glyph-name="backslash" unicode="\" horiz-adv-x="868" 
d="M662 0l-656 1434h205l653 -1434h-202z" />
    <glyph glyph-name="bracketright" unicode="]" horiz-adv-x="659" 
d="M121 1235v199h403l2 -1434h-405v199h207v1036h-207z" />
    <glyph glyph-name="asciicircum" unicode="^" horiz-adv-x="1011" 
d="M410 1276l-99 -275h-211l170 474h389l170 -474h-211l-98 275h-110z" />
    <glyph glyph-name="underscore" unicode="_" horiz-adv-x="1091" 
d="M53 199l994 -4v-195h-994v199z" />
    <glyph glyph-name="grave" unicode="`" horiz-adv-x="354" 
d="M37 1010l113 424h198l-112 -424h-199z" />
    <glyph glyph-name="a" unicode="a" horiz-adv-x="1366" 
d="M1294 0h-204l-127 455h-545l-125 -455h-209l401 1434h410zM635 1235l-162 -582h434l-162 582h-110z" />
    <glyph glyph-name="b" unicode="b" horiz-adv-x="1206" 
d="M1087 418q0 -84 -36 -151t-99.5 -111t-139 -75t-167.5 -47.5t-169.5 -24t-160.5 -9.5h-198v1434h198q72 -1 140.5 -7.5t147 -21t142.5 -41t118 -64t84 -94t30 -127.5q0 -209 -262 -301q372 -91 372 -360zM780 1067q0 56 -40 97t-110 64t-147.5 33.5t-167.5 12.5v-410
q85 2 159.5 11.5t147.5 31t115.5 62.5t42.5 98zM315 647v-483q81 1 153.5 6.5t152.5 22t137.5 41.5t95 68.5t37.5 100.5q0 68 -51 117.5t-138 75.5t-182.5 38t-204.5 13z" />
    <glyph glyph-name="c" unicode="c" horiz-adv-x="1097" 
d="M1004 199v-199q-497 0 -722 170.5t-225 548.5q0 375 223 544t721 169v-199q-394 0 -569.5 -120t-175.5 -388q0 -263 174 -385t574 -141z" />
    <glyph glyph-name="d" unicode="d" horiz-adv-x="1185" 
d="M299 1233v-1034q98 4 168.5 10t137 18.5t111 30t84 45t63 64t41 87t25 112.5t7.5 143q0 108 -12.5 185.5t-43.5 137t-77.5 97t-120.5 61.5t-164.5 33t-218.5 10zM100 0v1432h189q117 0 206.5 -6.5t180.5 -26t157.5 -52t125.5 -86.5t95.5 -128t57.5 -178t21 -236
q0 -131 -20.5 -235.5t-57.5 -179.5t-96 -129.5t-125.5 -88t-158 -53t-181 -26.5t-205.5 -7h-189z" />
    <glyph glyph-name="e" unicode="e" horiz-adv-x="1175" 
d="M1038 1434v-199h-733v-387h600v-199h-600v-450h733v-199h-934v1434h934z" />
    <glyph glyph-name="f" unicode="f" horiz-adv-x="1087" 
d="M1038 1434v-199h-733v-387h600v-199h-600v-649h-201v1434h934z" />
    <glyph glyph-name="g" unicode="g" horiz-adv-x="1423" 
d="M733 770h578v-199q0 -158 -82 -290.5t-223.5 -208.5t-309.5 -76q-187 0 -336.5 94.5t-233 263t-83.5 379.5q0 325 191.5 522t508.5 197q168 0 273 -43v-199q-121 43 -279 43q-227 0 -361 -141.5t-134 -382.5q0 -236 126.5 -385t329.5 -149q175 0 293.5 108t118.5 268
h-377v199z" />
    <glyph glyph-name="h" unicode="h" horiz-adv-x="1286" 
d="M952 858v576h199v-1434h-199v659h-567v-659h-199v1434h199v-576h567z" />
    <glyph glyph-name="i" unicode="i" horiz-adv-x="483" 
d="M147 0v1434h199v-1434h-199z" />
    <glyph glyph-name="j" unicode="j" horiz-adv-x="1034" 
d="M53 455h199q0 -118 76 -201.5t184 -83.5q91 0 147.5 65t63.5 179v1020h199v-1020q0 -191 -118 -317t-294 -126q-124 0 -229.5 65t-166.5 176.5t-61 242.5z" />
    <glyph glyph-name="k" unicode="k" horiz-adv-x="1146" 
d="M1040 774l2 -59v-715h-198v575h-520v-575h-199v1434h199v-516l520 516h278l-659 -660h577z" />
    <glyph glyph-name="l" unicode="l" horiz-adv-x="1167" 
d="M1055 199v-199h-957v1434h197v-1235h760z" />
    <glyph glyph-name="m" unicode="m" 
d="M668 1434l127 -740h57l92 740h404l235 -1434h-201l-202 1235h-60l-92 -741h-401l-125 741h-60l-147 -1235h-201l172 1434h402z" />
    <glyph glyph-name="n" unicode="n" horiz-adv-x="1251" 
d="M150 1434h405l313 -1235h50v1235h198v-1434h-389l-326 1235h-53v-1235h-198v1434z" />
    <glyph glyph-name="o" unicode="o" horiz-adv-x="1359" 
d="M1294 723q0 -151 -34 -276t-91.5 -210t-135 -143.5t-163 -85t-176.5 -26.5q-124 0 -233.5 53.5t-190 149t-127.5 235t-47 303.5q0 173 46 312.5t127.5 230.5t191 139.5t237.5 48.5q131 0 242 -54t189 -150t121.5 -232t43.5 -295zM305 723q0 -230 111.5 -379t277.5 -149
q164 0 278.5 148t114.5 380q0 92 -24.5 184t-70.5 171.5t-122.5 129t-171.5 49.5q-76 0 -141 -30t-111 -81.5t-78 -120t-47.5 -145t-15.5 -157.5z" />
    <glyph glyph-name="p" unicode="p" horiz-adv-x="991" 
d="M991 1016q0 -87 -31 -157.5t-85 -117t-119 -80.5t-143 -53t-145.5 -28t-137.5 -11v-569h-199v1434h137q65 0 118.5 -2t131.5 -12t139 -26t126 -47.5t108.5 -74.5t71.5 -108.5t28 -147.5zM330 1237v-471q64 0 123.5 5.5t123.5 21.5t111 41.5t77 68.5t30 98q0 67 -41.5 115
t-112 73t-147 36.5t-164.5 11.5z" />
    <glyph glyph-name="q" unicode="q" horiz-adv-x="1390" 
d="M295 723q0 -229 112 -378.5t277 -149.5q164 0 278.5 148t114.5 380q0 73 -14.5 147t-46.5 144t-76.5 124t-109 86.5t-140.5 32.5q-77 0 -142 -30t-111 -81.5t-78.5 -120t-48 -145t-15.5 -157.5zM1085 145l230 -229l-141 -141l-254 256q-113 -49 -236 -49
q-124 0 -233.5 53.5t-190 149t-127.5 235t-47 303.5q0 173 46.5 312.5t128 230.5t191.5 139.5t238 48.5q174 0 309.5 -92.5t210 -259t74.5 -379.5q0 -376 -199 -578z" />
    <glyph glyph-name="r" unicode="r" horiz-adv-x="1116" 
d="M317 1237v-471q64 0 123 5.5t123 21.5t110.5 41.5t76.5 68.5t30 98q0 66 -41 114.5t-111.5 73.5t-147 36.5t-163.5 11.5zM842 0l-400 578q-101 -9 -127 -9v-569h-198v1434h137q65 0 119 -2t132 -11.5t138.5 -26t126 -47.5t108.5 -73.5t71 -107.5t28 -146
q0 -80 -25.5 -146t-72 -113.5t-102.5 -80t-126 -55.5l430 -625h-239z" />
    <glyph glyph-name="s" unicode="s" horiz-adv-x="1179" 
d="M133 51v244q154 -109 379 -109q367 0 367 246q0 55 -42.5 95.5t-111 67t-150.5 51.5t-164.5 56.5t-151 72.5t-111 109.5t-42.5 159.5q0 186 160 302t408 116q104 0 210.5 -18.5t155.5 -46.5v-217q-55 35 -167 56t-209 21q-147 0 -252.5 -61t-104.5 -152q0 -42 26 -74
t70.5 -52.5t101.5 -38.5t120.5 -35.5t127 -38.5t120.5 -54t101.5 -75t70.5 -107t26 -147q0 -207 -153 -324.5t-396 -117.5q-193 0 -389 71z" />
    <glyph glyph-name="t" unicode="t" horiz-adv-x="1196" 
d="M55 1434h1071v-199h-426v-1235h-198v1235h-447v199z" />
    <glyph glyph-name="u" unicode="u" horiz-adv-x="1292" 
d="M934 1434h199v-1434h-992v1434h199v-1235h594v1235z" />
    <glyph glyph-name="v" unicode="v" horiz-adv-x="1388" 
d="M1053 1434h207l-400 -1434h-411l-402 1434h207l346 -1235h109z" />
    <glyph glyph-name="w" unicode="w" 
d="M627 940h401l92 -741h60l202 1235h201l-235 -1434h-404l-92 741h-57l-127 -741h-402l-172 1434h201l147 -1235h60z" />
    <glyph glyph-name="x" unicode="x" horiz-adv-x="1390" 
d="M88 1434h221l375 -553l373 553h225l-485 -717l485 -717h-223l-373 551l-375 -553l-221 2l483 717z" />
    <glyph glyph-name="y" unicode="y" horiz-adv-x="1306" 
d="M770 0h-199v700l-495 734h221l375 -553l372 553h224l-498 -738v-696z" />
    <glyph glyph-name="z" unicode="z" horiz-adv-x="1177" 
d="M1087 199v-199h-972l659 1235h-659v199h991l-660 -1235h641z" />
    <glyph glyph-name="bar" unicode="|" horiz-adv-x="520" 
d="M152 0v1434h198v-1235l2 -199h-200z" />
    <glyph glyph-name="uni0401" unicode="&#x401;" horiz-adv-x="1132" 
d="M1038 1434v-199h-733v-387h600v-199h-600v-450h733v-199h-934v1434h934zM823 1536h-504v178h504v-178z" />
    <glyph glyph-name="uni0410" unicode="&#x410;" horiz-adv-x="1366" 
d="M1294 0h-204l-127 455h-545l-125 -455h-209l401 1434h410zM635 1235l-162 -582h434l-162 582h-110z" />
    <glyph glyph-name="uni0411" unicode="&#x411;" horiz-adv-x="1265" 
d="M274 1235v-395q78 10 187 10q62 0 121 -4t130 -16t131.5 -31.5t119.5 -53t100.5 -77.5t66.5 -108t25 -142q0 -430 -743 -430q-83 0 -199 6t-137 6v1434h1011v-199h-813zM274 639v-463q81 -12 187 -12q55 0 106.5 4t109.5 14t105.5 29t86.5 46t61 69t22 94t-29.5 93
t-77.5 66.5t-113 42t-131 23t-138 6.5q-109 0 -189 -12z" />
    <glyph glyph-name="uni0412" unicode="&#x412;" horiz-adv-x="1206" 
d="M1087 418q0 -84 -36 -151t-99.5 -111t-139 -75t-167.5 -47.5t-169.5 -24t-160.5 -9.5h-198v1434h198q72 -1 140.5 -7.5t147 -21t142.5 -41t118 -64t84 -94t30 -127.5q0 -209 -262 -301q372 -91 372 -360zM780 1079q0 51 -40.5 89.5t-109.5 60.5t-147.5 32.5t-167.5 12.5
v-410q67 1 127 7t124 21t109.5 38t75 61.5t29.5 87.5zM315 647v-483q104 1 194.5 11.5t182 36.5t145.5 78.5t54 127.5q0 63 -51 109t-138 71t-182.5 36.5t-204.5 12.5z" />
    <glyph glyph-name="uni0413" unicode="&#x413;" horiz-adv-x="1142" 
d="M131 1434h999v-199h-800v-1235h-199v1434z" />
    <glyph glyph-name="uni0414" unicode="&#x414;" horiz-adv-x="1570" 
d="M575 414l402 96v725h-404l2 -725h402zM1176 520h294v-520h-198v322l-295 2l-43 10l43 -10l-698 -2v-324h-199v522h295v914h801v-914z" />
    <glyph glyph-name="uni0415" unicode="&#x415;" horiz-adv-x="1175" 
d="M1038 1434v-199h-733v-387h600v-199h-600v-450h733v-199h-934v1434h934z" />
    <glyph glyph-name="uni0416" unicode="&#x416;" horiz-adv-x="1558" 
d="M1235 0v578l-352 -3v-575h-199v575h-352v-575h-199l2 774h424l-469 660h244l350 -492v492h199v-494l350 494h244l-469 -660l426 2v-776h-199z" />
    <glyph glyph-name="uni0417" unicode="&#x417;" horiz-adv-x="1079" 
d="M1022 1233l-553 -354q61 0 130 -12t145.5 -42.5t137 -75.5t100.5 -119t40 -165q0 -88 -38 -159.5t-98.5 -119t-147.5 -83t-171.5 -55t-185 -31t-173.5 -14.5t-151 -3v195q48 0 99 1.5t129.5 8.5t147.5 17.5t143 31.5t126.5 48t86.5 69.5t34 93.5q0 62 -43 108t-116.5 71
t-155 36.5t-172.5 11.5q-132 0 -234 -20v209l555 354h-600v199h965v-201z" />
    <glyph glyph-name="uni0418" unicode="&#x418;" horiz-adv-x="1267" 
d="M952 1116v318h199v-1434h-199v836l-567 -568v-268h-199v1434h199v-885z" />
    <glyph glyph-name="uni0419" unicode="&#x419;" horiz-adv-x="1372" 
d="M952 1116v318h199v-1434h-199v836l-567 -568v-268h-199v1434h199v-885zM952 1536h-567v178h567v-178z" />
    <glyph glyph-name="uni041A" unicode="&#x41a;" horiz-adv-x="1163" 
d="M1063 776v-61l2 -715h-199l-2 575h-518v-575h-199v1434h199v-516l518 516h281l-662 -660z" />
    <glyph glyph-name="uni041B" unicode="&#x41b;" horiz-adv-x="1388" 
d="M860 1434l400 -1434h-207l-344 1235h-109l-346 -1235h-207l402 1434h411z" />
    <glyph glyph-name="uni041C" unicode="&#x41c;" 
d="M1028 494h-401l-125 741h-60l-147 -1235h-201l172 1434h402l127 -740h57l92 740h404l235 -1434h-201l-202 1235h-60z" />
    <glyph glyph-name="uni041D" unicode="&#x41d;" horiz-adv-x="1286" 
d="M932 858v576h198v-1434h-198v659h-600v-659h-201v1434h201v-576h600z" />
    <glyph glyph-name="uni041E" unicode="&#x41e;" horiz-adv-x="1308" 
d="M1257 723q0 -151 -34 -276t-92 -210t-136 -143.5t-163.5 -85t-176.5 -26.5q-124 0 -233.5 53.5t-190 149t-127.5 235t-47 303.5q0 173 46.5 312.5t128.5 230.5t192 139.5t238 48.5q174 0 309.5 -92.5t210.5 -259t75 -379.5zM266 723q0 -229 112 -378.5t277 -149.5
q164 0 279 148t115 380q0 73 -14.5 147t-46.5 144t-76.5 124t-109 86.5t-140.5 32.5q-77 0 -142.5 -30t-111.5 -81.5t-78.5 -120t-48 -145t-15.5 -157.5z" />
    <glyph glyph-name="uni041F" unicode="&#x41f;" horiz-adv-x="1382" 
d="M1194 1434v-1434h-199v1235h-596v-1235h-198v1434h993z" />
    <glyph glyph-name="uni0420" unicode="&#x420;" horiz-adv-x="1060" 
d="M991 1016q0 -87 -31 -157.5t-85 -117t-119 -80.5t-143 -53t-145.5 -28t-137.5 -11v-569h-199v1434h53q88 0 140.5 -1t147.5 -9t156 -23t137 -46t120 -74t75 -111t31 -154zM330 1237v-471q65 0 124 6t123.5 23t111 43.5t76.5 72.5t30 105q0 62 -41.5 107t-111.5 68.5
t-147.5 34.5t-164.5 11z" />
    <glyph glyph-name="uni0421" unicode="&#x421;" horiz-adv-x="1230" 
d="M1055 199v-199q-116 0 -211 7t-195.5 27t-177.5 52.5t-147 87.5t-116 129t-72.5 179t-26.5 235q0 131 26.5 236t72 179t116 128.5t147 87t177.5 52t195.5 26t211.5 6.5l-2 -199q-144 -1 -252.5 -14.5t-205 -48.5t-157.5 -92t-96 -148t-35 -213q0 -116 35 -203t96 -143.5
t157 -93.5t205.5 -54.5t254.5 -23.5z" />
    <glyph glyph-name="uni0422" unicode="&#x422;" horiz-adv-x="1196" 
d="M55 1434h1071v-199h-426v-1235h-198v1235h-447v199z" />
    <glyph glyph-name="uni0423" unicode="&#x423;" horiz-adv-x="1107" 
d="M217 0v199h471l66 549q-97 -43 -232 -43q-96 0 -173.5 25t-127.5 67t-87.5 97t-56.5 115.5t-30.5 120.5t-12 115t0.5 97t5 67l3 25h199q-1 -7 -2.5 -18.5t-3.5 -47.5t-1.5 -71t5.5 -82.5t15.5 -88.5t31 -83t49 -71.5t72 -48.5t98.5 -20q68 -1 122 27.5t86 69t55.5 99.5
t34 105.5t17.5 100.5l8 63q0 12 2 16l5 50h200l-172 -1434h-647z" />
    <glyph glyph-name="uni0424" unicode="&#x424;" horiz-adv-x="1533" 
d="M659 674v479q-200 -1 -314 -65t-114 -173q0 -110 114 -174t314 -67zM860 1153v-479q201 3 315.5 67t114.5 174q0 109 -114.5 173t-315.5 65zM860 487v-487h-201v487q-285 19 -448.5 134.5t-163.5 300.5q0 184 161 293t451 126v91h201v-91q292 -17 452.5 -126t160.5 -293
q0 -185 -164 -300.5t-449 -134.5z" />
    <glyph glyph-name="uni0425" unicode="&#x425;" horiz-adv-x="1390" 
d="M88 1434h221l375 -553l373 553h225l-485 -717l485 -717h-223l-373 551l-375 -553l-221 2l483 717z" />
    <glyph glyph-name="uni0426" unicode="&#x426;" horiz-adv-x="1488" 
d="M952 1434h199v-1289l354 -354l-141 -139l-348 348h-830v1434h199v-1235h567v1235z" />
    <glyph glyph-name="uni0427" unicode="&#x427;" horiz-adv-x="1302" 
d="M866 1434h201v-1434h-199l-2 821q-36 -46 -128 -81t-173 -35q-98 0 -177.5 25t-131 67t-90 97t-58 115.5t-31.5 120.5t-13 115t0 97t4 67l4 25h198q-1 -7 -2.5 -18.5t-3 -47.5t-1 -71t7 -82.5t18 -88t34.5 -82.5t54.5 -72t79.5 -49t108 -20q58 -1 105 22t77.5 59
t53.5 87.5t35 99.5t19 103t9 90.5t2 69.5z" />
    <glyph glyph-name="uni0428" unicode="&#x428;" horiz-adv-x="1671" 
d="M117 1434h198v-1233h416l2 1233h199l-2 -1233h426v1233h196v-1432h-1435v1432z" />
    <glyph glyph-name="uni0429" unicode="&#x429;" horiz-adv-x="1722" 
d="M1737 -348l-348 348h-1283v1434h199v-1233h416l2 1233h199l-2 -1233h426v1233h196v-1307l336 -336z" />
    <glyph glyph-name="uni042A" unicode="&#x42a;" horiz-adv-x="1411" 
d="M446 1434v-594q77 12 181 12q55 0 107.5 -4t115.5 -16t116.5 -31.5t105.5 -53t88.5 -77t58.5 -107.5t22 -141q0 -78 -23 -142.5t-60.5 -108.5t-93 -77t-114 -52.5t-130.5 -31.5t-135 -16t-134 -4q-72 0 -175 5t-124 5v1235h-234v199h428zM446 639v-463q64 -10 150 -10
q49 0 94.5 4t97.5 13.5t94.5 28.5t78 46.5t55.5 70t20 95.5q0 64 -34 110.5t-93.5 71.5t-127.5 36t-148 11q-87 0 -187 -14z" />
    <glyph glyph-name="uni042B" unicode="&#x42b;" horiz-adv-x="1515" 
d="M1251 0v1434h197v-1434h-197zM301 1434v-594q76 12 180 12q56 0 109 -4t116 -16t116.5 -31.5t105.5 -53t88 -77t58 -107.5t22 -141q0 -78 -23 -142.5t-60.5 -108.5t-93 -77t-114 -52.5t-130 -31.5t-134 -16t-133.5 -4q-72 0 -176 5t-126 5v1434h195zM301 639v-463
q66 -10 152 -10q48 0 93.5 4t97.5 13.5t94.5 28.5t78.5 46.5t56 70t20 95.5q0 52 -23 92t-61.5 65.5t-92 42t-109 23t-118.5 6.5q-88 0 -188 -14z" />
    <glyph glyph-name="uni042C" unicode="&#x42c;" horiz-adv-x="1146" 
d="M274 840q77 12 181 12q55 0 107.5 -4t115.5 -16t116 -31.5t105 -53t88 -77t58 -107.5t22 -141q0 -78 -23 -142.5t-60.5 -108.5t-93 -77t-114 -52.5t-130 -31.5t-134 -16t-133.5 -4q-72 0 -175.5 5t-125.5 5v1434h196v-594zM274 176q64 -10 150 -10q48 0 93.5 4t97.5 13.5
t94.5 28.5t78.5 46.5t56 70t20 95.5q0 64 -34 110.5t-93.5 71.5t-127.5 36t-148 11q-91 0 -187 -14v-463z" />
    <glyph glyph-name="uni042D" unicode="&#x42d;" horiz-adv-x="1159" 
d="M123 0v199q131 6 232 20.5t192.5 44.5t154 76t104.5 115t56 161h-692v199h694q-13 98 -55 171t-104.5 120t-154 75.5t-193 39.5t-232.5 12l-2 199q117 0 211.5 -6.5t195.5 -26t177.5 -52t147 -87t116 -128.5t72 -179t26.5 -236q0 -130 -26.5 -235t-72.5 -179t-116 -129
t-147 -87.5t-177.5 -52.5t-195.5 -27t-211 -7z" />
    <glyph glyph-name="uni042E" unicode="&#x42e;" horiz-adv-x="1617" 
d="M1589 727q0 -220 -67 -388.5t-189.5 -260.5t-281.5 -92q-143 0 -259.5 82t-188.5 228.5t-87 334.5h-225v-631h-199v1434h199v-605h225q23 288 168.5 458.5t370.5 170.5q156 0 277.5 -92.5t189 -259t67.5 -379.5zM715 723q0 -217 95.5 -360.5t240.5 -143.5
q144 0 239.5 144t95.5 360q0 142 -43.5 260t-119.5 185t-168 67q-149 0 -244.5 -144t-95.5 -368z" />
    <glyph glyph-name="uni042F" unicode="&#x42f;" horiz-adv-x="1173" 
d="M838 766v471q-88 0 -164.5 -11.5t-147 -36.5t-112 -73t-41.5 -115q0 -55 30 -98t77 -68.5t111 -41.5t123.5 -21.5t123.5 -5.5zM713 580l-402 -580h-237l428 625q-326 111 -326 395q0 81 28 146t71 107.5t108.5 73.5t126 47.5t138.5 26t132 11.5t119 2h137v-1434h-198v569
q-73 4 -125 11z" />
    <glyph glyph-name="uni0430" unicode="&#x430;" horiz-adv-x="1366" 
d="M1294 0h-204l-127 455h-545l-125 -455h-209l401 1434h410zM635 1235l-162 -582h434l-162 582h-110z" />
    <glyph glyph-name="uni0431" unicode="&#x431;" horiz-adv-x="1312" 
d="M319 1235v-395q78 10 189 10q62 0 120.5 -4t129.5 -16t131.5 -31.5t119.5 -53t100 -77.5t66 -108t25 -142q0 -430 -743 -430q-83 0 -198 6t-136 6v1434h1010v-199h-814zM319 639v-463q83 -12 187 -12q55 0 106.5 4t109.5 14t105.5 29t86.5 46t61 69t22 94
q0 64 -43.5 111.5t-117 72t-154.5 36t-172 11.5q-112 0 -191 -12z" />
    <glyph glyph-name="uni0432" unicode="&#x432;" horiz-adv-x="1206" 
d="M1087 418q0 -84 -36 -151t-99.5 -111t-139 -75t-167.5 -47.5t-169.5 -24t-160.5 -9.5h-198v1434h198q72 -1 140.5 -7.5t147 -21t142.5 -41t118 -64t84 -94t30 -127.5q0 -209 -262 -301q372 -91 372 -360zM780 1079q0 51 -40.5 89.5t-109.5 60.5t-147.5 32.5t-167.5 12.5
v-410q67 1 127 7t124 21t109.5 38t75 61.5t29.5 87.5zM315 647v-483q104 1 194.5 11.5t182 36.5t145.5 78.5t54 127.5q0 63 -51 109t-138 71t-182.5 36.5t-204.5 12.5z" />
    <glyph glyph-name="uni0433" unicode="&#x433;" horiz-adv-x="1142" 
d="M131 1434h959v-199h-760v-1235h-199v1434z" />
    <glyph glyph-name="uni0434" unicode="&#x434;" horiz-adv-x="1570" 
d="M575 414l402 96v725h-404l2 -725h402zM1176 520h294v-520h-198v322l-295 2l-43 10l43 -10l-698 -2v-324h-199v522h295v914h801v-914z" />
    <glyph glyph-name="uni0435" unicode="&#x435;" horiz-adv-x="1175" 
d="M1038 1434v-199h-733v-387h600v-199h-600v-450h733v-199h-934v1434h934z" />
    <glyph glyph-name="uni0436" unicode="&#x436;" horiz-adv-x="1558" 
d="M1235 0v578l-352 -3v-575h-199v575h-352v-575h-199l2 774h424l-469 660h244l350 -492v492h199v-494l350 494h244l-469 -660l426 2v-776h-199z" />
    <glyph glyph-name="uni0437" unicode="&#x437;" horiz-adv-x="1216" 
d="M1102 1233l-553 -354q61 0 130 -12t145.5 -42.5t137 -75.5t100.5 -119t40 -165q0 -88 -38 -159.5t-98 -119t-147 -83t-171 -55t-184.5 -31t-173.5 -14.5t-151 -3v195q48 0 98.5 1.5t129 8.5t147.5 17.5t143 31.5t126 48t86 69.5t34 93.5q0 62 -43 108t-116.5 71
t-155 36.5t-172.5 11.5q-132 0 -234 -20v209l555 354h-598v199h963v-201z" />
    <glyph glyph-name="uni0438" unicode="&#x438;" horiz-adv-x="1214" 
d="M899 1116v318h199v-1434h-199v836l-567 -568v-268h-199v1434h199v-885z" />
    <glyph glyph-name="uni0439" unicode="&#x439;" horiz-adv-x="1372" 
d="M952 1116v318h199v-1434h-199v836l-567 -568v-268h-199v1434h199v-885zM952 1536h-567v178h567v-178z" />
    <glyph glyph-name="uni043A" unicode="&#x43a;" horiz-adv-x="1169" 
d="M1063 776v-61l2 -715h-199l-2 575h-518v-575h-199v1434h199v-516l518 516h281l-662 -660z" />
    <glyph glyph-name="uni043B" unicode="&#x43b;" horiz-adv-x="1388" 
d="M860 1434l400 -1434h-207l-344 1235h-109l-346 -1235h-207l402 1434h411z" />
    <glyph glyph-name="uni043C" unicode="&#x43c;" 
d="M1028 494h-401l-125 741h-60l-147 -1235h-201l172 1434h402l127 -740h57l92 740h404l235 -1434h-201l-202 1235h-60z" />
    <glyph glyph-name="uni043D" unicode="&#x43d;" horiz-adv-x="1286" 
d="M952 858v576h199v-1434h-199v659h-567v-659h-199v1434h199v-576h567z" />
    <glyph glyph-name="uni043E" unicode="&#x43e;" horiz-adv-x="1390" 
d="M1284 723q0 -151 -34 -276t-91.5 -210t-135 -143.5t-163 -85t-176.5 -26.5q-124 0 -233.5 53.5t-190 149t-127.5 235t-47 303.5q0 173 46.5 312.5t128 230.5t191.5 139.5t238 48.5q174 0 309.5 -92.5t210 -259t74.5 -379.5zM295 723q0 -229 112 -378.5t277 -149.5
q164 0 278.5 148t114.5 380q0 73 -14.5 147t-46.5 144t-76.5 124t-109 86.5t-140.5 32.5q-77 0 -142 -30t-111 -81.5t-78.5 -120t-48 -145t-15.5 -157.5z" />
    <glyph glyph-name="uni043F" unicode="&#x43f;" horiz-adv-x="1382" 
d="M1192 1434v-1434h-199v1235h-594v-1235h-198v1434h991z" />
    <glyph glyph-name="uni0440" unicode="&#x440;" horiz-adv-x="991" 
d="M991 1016q0 -87 -31 -157.5t-85 -117t-119 -80.5t-143 -53t-145.5 -28t-137.5 -11v-569h-199v1434h53q88 0 140.5 -1t147.5 -9t156 -23t137 -46t120 -74t75 -111t31 -154zM330 1237v-471q65 0 124 6t123.5 23t111 43.5t76.5 72.5t30 105q0 62 -41.5 107t-111.5 68.5
t-147.5 34.5t-164.5 11z" />
    <glyph glyph-name="uni0441" unicode="&#x441;" horiz-adv-x="1230" 
d="M1055 199v-199q-116 0 -211 7t-195.5 27t-177.5 52.5t-147 87.5t-116 129t-72.5 179t-26.5 235q0 131 26.5 236t72 179t116 128.5t147 87t177.5 52t195.5 26t211.5 6.5l-2 -199q-144 -1 -252.5 -14.5t-205 -48.5t-157.5 -92t-96 -148t-35 -213q0 -116 35 -203t96 -143.5
t157 -93.5t205.5 -54.5t254.5 -23.5z" />
    <glyph glyph-name="uni0442" unicode="&#x442;" horiz-adv-x="1196" 
d="M55 1434h1071v-199h-426v-1235h-198v1235h-447v199z" />
    <glyph glyph-name="uni0443" unicode="&#x443;" horiz-adv-x="1112" 
d="M221 0v199h469l68 549q-97 -43 -234 -43q-95 0 -172.5 25t-127.5 67t-87.5 97t-56 115.5t-30 120.5t-12 115t0.5 97t5 67l3 25h199q-1 -7 -2.5 -18.5t-3.5 -47.5t-1.5 -71t5 -82.5t15 -88.5t30.5 -83t48.5 -71.5t72 -48.5t98.5 -20q68 -1 122 27.5t86 69t56 99.5
t34 104.5t17 99.5l17 131h200l-172 -1434h-647z" />
    <glyph glyph-name="uni0444" unicode="&#x444;" horiz-adv-x="1533" 
d="M659 674v479q-200 -1 -314 -65t-114 -173q0 -110 114 -174t314 -67zM860 1153v-479q201 3 315.5 67t114.5 174q0 109 -114.5 173t-315.5 65zM860 487v-487h-201v487q-285 19 -448.5 134.5t-163.5 300.5q0 184 161 293t451 126v91h201v-91q292 -17 452.5 -126t160.5 -293
q0 -185 -164 -300.5t-449 -134.5z" />
    <glyph glyph-name="uni0445" unicode="&#x445;" horiz-adv-x="1390" 
d="M88 1434h221l375 -553l373 553h225l-485 -717l485 -717h-223l-373 551l-375 -553l-221 2l483 717z" />
    <glyph glyph-name="uni0446" unicode="&#x446;" horiz-adv-x="1488" 
d="M952 1434h199v-1289l354 -354l-141 -139l-348 348h-830v1434h199v-1235h567v1235z" />
    <glyph glyph-name="uni0447" unicode="&#x447;" horiz-adv-x="1302" 
d="M866 1434h201v-1434h-199l-2 821q-36 -46 -128 -81t-173 -35q-98 0 -177.5 25t-131 67t-90 97t-58 115.5t-31.5 120.5t-13 115t0 97t4 67l4 25h198q-1 -7 -2.5 -18.5t-3 -47.5t-1 -71t7 -82.5t18 -88t34.5 -82.5t54.5 -72t79.5 -49t108 -20q58 -1 105 22t77.5 59
t53.5 87.5t35 99.5t19 103t9 90.5t2 69.5z" />
    <glyph glyph-name="uni0448" unicode="&#x448;" horiz-adv-x="1671" 
d="M117 1434h198v-1233h416l2 1233h199l-2 -1233h426v1233h196v-1432h-1435v1432z" />
    <glyph glyph-name="uni0449" unicode="&#x449;" horiz-adv-x="1961" 
d="M1737 -348l-348 348h-1283v1434h199v-1233h416l2 1233h199l-2 -1233h426v1233h196v-1307l336 -336z" />
    <glyph glyph-name="uni044A" unicode="&#x44a;" horiz-adv-x="1411" 
d="M446 1434v-594q77 12 181 12q55 0 107.5 -4t115.5 -16t116.5 -31.5t105.5 -53t88.5 -77t58.5 -107.5t22 -141q0 -78 -23 -142.5t-60.5 -108.5t-93 -77t-114 -52.5t-130.5 -31.5t-135 -16t-134 -4q-72 0 -175 5t-124 5v1235h-234v199h428zM446 639v-463q64 -10 150 -10
q49 0 94.5 4t97.5 13.5t94.5 28.5t78 46.5t55.5 70t20 95.5q0 64 -34 110.5t-93.5 71.5t-127.5 36t-148 11q-87 0 -187 -14z" />
    <glyph glyph-name="uni044B" unicode="&#x44b;" horiz-adv-x="1515" 
d="M1251 0v1434h197v-1434h-197zM301 1434v-594q76 12 180 12q56 0 109 -4t116 -16t116.5 -31.5t105.5 -53t88 -77t58 -107.5t22 -141q0 -78 -23 -142.5t-60.5 -108.5t-93 -77t-114 -52.5t-130 -31.5t-134 -16t-133.5 -4q-72 0 -176 5t-126 5v1434h195zM301 639v-463
q66 -10 152 -10q48 0 93.5 4t97.5 13.5t94.5 28.5t78.5 46.5t56 70t20 95.5q0 52 -23 92t-61.5 65.5t-92 42t-109 23t-118.5 6.5q-88 0 -188 -14z" />
    <glyph glyph-name="uni044C" unicode="&#x44c;" horiz-adv-x="1198" 
d="M324 840q76 12 180 12q55 0 107.5 -4t115.5 -16t116.5 -31.5t105.5 -53t88.5 -77t58.5 -107.5t22 -141q0 -78 -23 -142.5t-60.5 -108.5t-93.5 -77t-114.5 -52.5t-130.5 -31.5t-134.5 -16t-133.5 -4q-72 0 -175 5t-124 5v1434h195v-594zM324 176q63 -10 149 -10
q49 0 94.5 4t97.5 13.5t94.5 28.5t78 46.5t55.5 70t20 95.5q0 64 -34 110.5t-93.5 71.5t-127.5 36t-148 11q-90 0 -186 -14v-463z" />
    <glyph glyph-name="uni044D" unicode="&#x44d;" horiz-adv-x="1228" 
d="M193 0v199q131 6 232.5 20.5t193 44.5t154 76t105 115t56.5 161h-694v199h694q-13 98 -55 171t-104.5 120t-154 75.5t-193 39.5t-232.5 12l-2 199q117 0 211.5 -6.5t195.5 -26t177.5 -52t147 -87t116 -128.5t72 -179t26.5 -236q0 -130 -26.5 -235t-72.5 -179t-116 -129
t-147 -87.5t-177.5 -52.5t-195.5 -27t-211 -7z" />
    <glyph glyph-name="uni044E" unicode="&#x44e;" horiz-adv-x="1617" 
d="M1589 727q0 -220 -67 -388.5t-189.5 -260.5t-281.5 -92q-143 0 -259.5 82t-188.5 228.5t-87 334.5h-225v-631h-199v1434h199v-605h225q23 288 168.5 458.5t370.5 170.5q156 0 277.5 -92.5t189 -259t67.5 -379.5zM715 723q0 -217 95.5 -360.5t240.5 -143.5
q144 0 239.5 144t95.5 360q0 142 -43.5 260t-119.5 185t-168 67q-149 0 -244.5 -144t-95.5 -368z" />
    <glyph glyph-name="uni044F" unicode="&#x44f;" horiz-adv-x="1173" 
d="M838 766v471q-88 0 -164.5 -11.5t-147 -36.5t-112 -73t-41.5 -115q0 -55 30 -98t77 -68.5t111 -41.5t123.5 -21.5t123.5 -5.5zM713 580l-402 -580h-237l428 625q-326 111 -326 395q0 81 28 146t71 107.5t108.5 73.5t126 47.5t138.5 26t132 11.5t119 2h137v-1434h-198v569
q-73 4 -125 11z" />
    <glyph glyph-name="uni0451" unicode="&#x451;" horiz-adv-x="1132" 
d="M1038 1434v-199h-733v-387h600v-199h-600v-450h733v-199h-934v1434h934zM823 1536h-504v178h504v-178z" />
    <glyph glyph-name="quoteright" unicode="&#x2019;" horiz-adv-x="456" 
d="M289 1010h-199l113 424h198z" />
    <glyph glyph-name="quotesinglbase" unicode="&#x201a;" horiz-adv-x="405" 
d="M47 -283l113 424h200l-112 -424h-201z" />
    <glyph glyph-name="uni0430.1" horiz-adv-x="1179" 
d="M614 268q-14 60 -14 142v49q-50 0 -95.5 -4t-108 -17.5t-100.5 -46.5t-38 -82q0 -112 115 -112q99 0 241 71zM799 1024v-199v-311q0 -105 13 -176t30.5 -99t38.5 -28q29 0 48 51.5t9 120.5h199q0 -176 -78.5 -274.5t-184.5 -98.5q-96 0 -169 76q-178 -80 -340 -80
q-66 0 -120 16t-97.5 49.5t-67.5 93t-23 140.5q1 155 135 246.5t359 91.5h31h18v182h-473v199h672z" />
    <glyph glyph-name="uni0431.1" horiz-adv-x="960" 
d="M299 434v-262q33 -4 96 -4q36 0 68.5 2t79 10.5t79 22.5t56.5 42t24 66q0 40 -34.5 68t-89.5 40t-98 16.5t-83 4.5q-49 0 -98 -6zM299 825v-198q66 4 98 4q57 0 111 -5.5t114 -18t108.5 -37t89 -58.5t63 -86t22.5 -117q0 -317 -543 -317q-39 0 -115.5 4t-115.5 4h-31
v1024h758v-199h-559z" />
    <glyph glyph-name="uni0432.1" horiz-adv-x="909" 
d="M834 297q0 -60 -25.5 -108t-71 -79t-99 -53.5t-119.5 -34.5t-121.5 -17.5t-114.5 -6.5h-201v1028l199 2q64 -1 122.5 -7.5t125 -24.5t115 -45t80.5 -74t32 -107q0 -148 -189 -215q267 -65 267 -258zM555 770q0 40 -42.5 66.5t-101 37t-130.5 11.5v-240q50 1 94 6.5
t87 18.5t68 38.5t25 61.5zM281 438v-291q354 5 354 150q0 39 -31 67.5t-84.5 44t-112.5 22.5t-126 7z" />
    <glyph glyph-name="uni0433.1" horiz-adv-x="845" 
d="M70 1024h712v-199h-514v-825h-198v1024z" />
    <glyph glyph-name="uni0434.1" horiz-adv-x="1234" 
d="M750 428v-199v596h-289l4 -397h285zM948 428h211l2 -428h-198v229h-711v-229h-199v428h211v596h684v-596z" />
    <glyph glyph-name="uni0435.1" horiz-adv-x="888" 
d="M813 1024v-199h-524v-215h428v-198h-428v-213h524v-199h-723v1024h723z" />
    <glyph glyph-name="uni0436.1" horiz-adv-x="1181" 
d="M137 610h193l-295 414h244l223 -313v313h198v-311l222 311h243l-295 -414h195v-100h2v-510h-199v412h-168v-412h-198v412h-166v-412h-199v610z" />
    <glyph glyph-name="uni0437.1" horiz-adv-x="905" 
d="M809 825l-317 -182q146 -25 231.5 -106t85.5 -195q0 -61 -25.5 -112t-67.5 -85.5t-100 -61.5t-117 -42.5t-126 -25.5t-120.5 -13.5t-105.5 -3.5q-8 0 -19.5 1t-14.5 1h-35v193h45q41 0 88 2t121 11.5t130.5 24.5t98 45t41.5 70q0 31 -25.5 54t-59.5 34.5t-81 18.5
t-77 8.5t-60 1.5q-83 0 -147 -12l-43 -9v195l327 188h-358v199h731v-199z" />
    <glyph glyph-name="uni0438.1" horiz-adv-x="1011" 
d="M698 821v203h199v-1024h-199v541l-405 -406v-135h-199v1024h199v-608z" />
    <glyph glyph-name="uni0439.1" horiz-adv-x="987" 
d="M692 821v203h199v-1024h-199v541l-405 -406v-135h-199v1024h199v-608zM692 1126h-405v179h405v-179z" />
    <glyph glyph-name="uni043A.1" horiz-adv-x="919" 
d="M805 592v-592h-199l-2 393l-303 -2v-391h-199v1024h199v-289l295 289h285l-443 -434z" />
    <glyph glyph-name="uni043B.1" horiz-adv-x="1142" 
d="M397 512v512h672v-1024h-199v825h-274v-415q0 -190 -81.5 -296t-192.5 -106q-108 0 -186.5 99.5t-78.5 275.5h201q-10 -70 8.5 -122t48.5 -52q21 0 38.5 28t30.5 99.5t13 175.5z" />
    <glyph glyph-name="uni043C.1" horiz-adv-x="1130" 
d="M631 1024h401v-1024h-201v836h-32l-88 -502h-299l-88 502h-33v-836h-199v1024h400l69 -397z" />
    <glyph glyph-name="uni043D.1" horiz-adv-x="1017" 
d="M696 639v385h201v-1024h-201v440h-413v-440h-189v1024h189v-385h413z" />
    <glyph glyph-name="uni043E.1" horiz-adv-x="1030" 
d="M510 180q60 0 108.5 31.5t77 82t43.5 108t15 114.5t-15 114.5t-43 108.5t-75.5 83t-106.5 32q-62 0 -111 -31t-77.5 -81.5t-43 -108t-14.5 -117.5q0 -57 15 -114.5t43.5 -108t76.5 -82t107 -31.5zM510 -18q-91 0 -167.5 34t-127 88.5t-86 125.5t-51 143t-15.5 143
q0 75 15 147t49.5 141.5t85 121.5t128.5 84t173 32q93 0 169.5 -33t126.5 -86t84 -123t49 -141t15 -143q0 -107 -28.5 -202t-82.5 -170t-141 -118.5t-196 -43.5z" />
    <glyph glyph-name="uni043F.1" horiz-adv-x="989" 
d="M899 1024v-1024h-199v825h-424v-825h-196v1024h819z" />
    <glyph glyph-name="uni0440.1" horiz-adv-x="950" 
d="M317 831v-262q31 -4 97 -4q36 0 69 2t79 10.5t79 23t56.5 42.5t23.5 66q0 41 -34.5 69t-89.5 40t-97.5 16t-83.5 4t-99 -7zM924 707q0 -64 -23 -114t-57.5 -82.5t-90 -56t-103.5 -35t-117 -18t-111.5 -7.5t-104.5 -1v-393h-198v1024q26 0 102.5 3t124.5 3q72 0 133 -4.5
t130.5 -16t123 -34.5t98.5 -57.5t69 -88t24 -122.5z" />
    <glyph glyph-name="uni0441.1" horiz-adv-x="854" 
d="M782 199v-199h-39q-128 0 -227 13.5t-188 48.5t-146.5 91.5t-91 147t-33.5 211.5q0 122 33 212t90.5 147t146.5 91.5t188 48t228 13.5h39l-2 -201h-39q-91 -1 -158 -8.5t-128.5 -27.5t-99.5 -54.5t-60.5 -89.5t-22.5 -131q0 -73 23.5 -126.5t63 -86.5t102.5 -54.5
t129 -30.5t155 -13z" />
    <glyph glyph-name="uni0442.1" horiz-adv-x="839" 
d="M35 1024h766v-199h-279v-825h-198v825h-289v199z" />
    <glyph glyph-name="uni0443.1" horiz-adv-x="837" 
d="M115 0v199h381l36 295q-67 -15 -129 -15q-102 0 -175.5 36.5t-113 99.5t-57.5 134t-18 154q0 53 10 121h203l-6 -29q-8 -47 -8 -102q0 -61 13 -109.5t49.5 -84t92.5 -35.5q146 0 185 215q3 15 6 46t6 46l6 53h195l-125 -1024h-551z" />
    <glyph glyph-name="uni0444.1" horiz-adv-x="1120" 
d="M635 870v-278q246 18 246 139q0 122 -246 139zM438 592v278q-38 -2 -74.5 -8.5t-78 -20.5t-67 -42.5t-25.5 -67.5q0 -121 245 -139zM635 414v-414h-197v414q-63 6 -121 19t-116 38t-100 60t-68.5 88t-26.5 118q0 76 36.5 134.5t92 92t129.5 55t140 29t133 7.5t133 -7.5
t140 -29t129 -55t91.5 -92t36.5 -134.5q0 -65 -26.5 -118t-68.5 -88t-100 -60t-116 -38t-121 -19z" />
    <glyph glyph-name="uni0445.1" horiz-adv-x="995" 
d="M729 1024h221l-342 -512l342 -512h-221l-231 346l-234 -346h-221l344 512l-344 512h221l234 -346z" />
    <glyph glyph-name="uni0446.1" horiz-adv-x="978" 
d="M72 0v1024h198v-825h322v825h199v-872l253 -248l-141 -140l-241 236h-590z" />
    <glyph glyph-name="uni0447.1" horiz-adv-x="950" 
d="M621 0v502q-83 -53 -199 -53q-163 0 -262 123.5t-99 326.5q0 46 11 125h200q-10 -65 -10 -115q0 -122 49.5 -198t128.5 -76q88 0 134.5 98t46.5 283v8h198v-1024h-198z" />
    <glyph glyph-name="uni0448.1" horiz-adv-x="1206" 
d="M94 1024h199v-825h207v825h198v-825h211v825h199v-1024h-1014v4v1016v4z" />
    <glyph glyph-name="uni0449.1" horiz-adv-x="1335" 
d="M1110 1024v-895l233 -229l-141 -138l-244 238h-860v4q0 692 -2 1016v4h201v-825h205v825h198v-825h211v825h199z" />
    <glyph glyph-name="uni044A.1" horiz-adv-x="1095" 
d="M430 455v-262q41 -5 100 -5q32 0 63.5 2t77.5 9.5t80 20t58.5 37.5t24.5 58q0 38 -24 66t-56.5 42.5t-78.5 23t-79 10.5t-68 2q-65 0 -98 -4zM231 825h-192v199h391v-393q75 0 124 -2t129.5 -10.5t134 -29t108.5 -53.5t82.5 -89t27.5 -130q0 -69 -24 -122.5t-68.5 -87.5
t-97 -57t-122.5 -34.5t-130 -15.5t-133 -4q-48 0 -125.5 2t-102.5 2z" />
    <glyph glyph-name="uni044B.1" horiz-adv-x="1306" 
d="M295 455v-262q58 -7 100 -7q41 0 83 4t96.5 16t89 40t34.5 69q0 38 -23.5 66t-56.5 42.5t-79 23t-78.5 10.5t-67.5 2q-65 0 -98 -4zM901 317q0 -69 -24 -122.5t-68.5 -88t-97.5 -57.5t-122 -34.5t-130 -16t-133 -4.5q-48 0 -125.5 3t-102.5 3v1024h197v-393
q47 0 79.5 -0.5t85.5 -3.5t91 -9t87 -17t83.5 -26.5t70.5 -39.5t58.5 -54.5t36.5 -72t14 -91.5zM1233 1024v-1024h-199v1024h199z" />
    <glyph glyph-name="uni044C.1" horiz-adv-x="919" 
d="M281 455v-262q58 -7 98 -7q41 0 83 4t96.5 16t89 40t34.5 69q0 38 -23.5 66t-56.5 42.5t-79 23t-78.5 10.5t-67.5 2q-65 0 -96 -4zM281 1024v-393q47 0 79.5 -0.5t85.5 -3.5t91 -9t87 -17t83.5 -26.5t70.5 -39.5t58.5 -54.5t36.5 -72t14 -91.5q0 -69 -24 -122.5t-69 -88
t-98.5 -57.5t-123 -34.5t-130.5 -16t-133 -4.5q-48 0 -124.5 3t-102.5 3v1024h199z" />
    <glyph glyph-name="uni044D.1" horiz-adv-x="851" 
d="M129 424v199h432q-18 59 -57.5 99t-101 61.5t-131.5 30t-165 9.5h-38l-2 201h38q128 0 227 -13.5t188 -48t147 -91.5t91.5 -147t33.5 -212q0 -121 -33.5 -211.5t-92 -147t-147.5 -91.5t-188 -48.5t-226 -13.5h-38v199l36 2q77 3 136 10t117 22.5t98 39.5t69.5 62t42.5 89
h-436z" />
    <glyph glyph-name="uni044E.1" horiz-adv-x="1443" 
d="M948 182q75 0 130.5 54.5t79.5 128.5t24 151q0 57 -14.5 115.5t-41.5 109.5t-72.5 83t-101.5 32q-59 0 -106 -31t-74 -81.5t-41 -109t-14 -118.5q0 -77 23.5 -151t78.5 -128.5t129 -54.5zM532 401h-233v-401h-199v1024h199v-424h227q10 87 38.5 162.5t78 140t129 102
t180.5 37.5q74 0 137.5 -22.5t109 -62.5t80.5 -91t55.5 -111t31 -119.5t10.5 -119.5q0 -82 -16 -158.5t-50 -144.5t-83.5 -119t-121 -80.5t-157.5 -29.5q-92 0 -167.5 36t-125 97t-80 132.5t-43.5 151.5z" />
    <glyph glyph-name="uni044F.1" horiz-adv-x="944" 
d="M659 569v262q-58 7 -98 7q-42 0 -84.5 -4t-97 -16t-89 -40t-34.5 -69q0 -38 23.5 -66t56.5 -42.5t79 -23t79 -10.5t69 -2q63 0 96 4zM659 0v322l-323 -322h-283l402 399q-402 38 -402 308q0 59 19 107.5t50 81.5t77 57.5t94.5 39t109 23t113 11.5t113.5 3q48 0 125.5 -3
t103.5 -3v-1024h-199z" />
    <glyph glyph-name="uni0451.1" horiz-adv-x="929" 
d="M854 1024v-199h-524v-215h428v-198h-428v-213h524v-199h-723v1024h723zM686 1200h-385v178h385v-178z" />
    <glyph glyph-name="W.1" 
d="M1348 1434l235 -1434h-201l-237 1434h203zM1028 494h-201l117 940h201zM266 1434h201l-172 -1434h-201zM668 1434l159 -940h-200l-160 940h201zM258 2714v200h371v-200h-371z" />
    <glyph glyph-name="uni0423.1" horiz-adv-x="1112" 
d="M221 0v199h469l68 549q-97 -43 -234 -43q-95 0 -172.5 25t-127.5 67t-87.5 97t-56 115.5t-30 120.5t-12 115t0.5 97t5 67l3 25h217q-1 -7 -3 -18.5t-5.5 -47.5t-4 -71t2.5 -82.5t12 -88.5t28 -83t46 -71.5t70 -48.5t98 -20q68 -1 122 27.5t86 69t56 99.5t34 104.5
t17 99.5l17 131h200l-172 -1434h-647z" />
    <glyph glyph-name="uni0427.1" horiz-adv-x="1302" 
d="M866 1434h201v-1434h-199l-2 821q-36 -46 -128 -81t-173 -35q-98 0 -177.5 25t-131 67t-90 97t-58 115.5t-31.5 120.5t-13 115t0 97t4 67l4 25h209q-2 -11 -4.5 -30t-4 -73.5t2.5 -104.5t22 -111t48.5 -105t87 -75t132.5 -32q58 -1 105 22t77.5 59t53.5 87.5t35 99.5
t19 103t9 90.5t2 69.5z" />
    <glyph glyph-name="Z.1" horiz-adv-x="0" 
 />
    <glyph glyph-name="uni0418.1" horiz-adv-x="1267" 
d="M952 1116v318h199v-1434h-199v836l-567 -568v-268h-199v1434h199v-885z" />
    <glyph glyph-name="uni0418.2" horiz-adv-x="1366" 
 />
    <glyph glyph-name="uni0412.1" horiz-adv-x="1206" 
d="M1087 418q0 -84 -36 -151t-99.5 -111t-139 -75t-167.5 -47.5t-169.5 -24t-160.5 -9.5h-198v1434h198q72 -1 140.5 -7.5t147 -21t142.5 -41t118 -64t84 -94t30 -127.5q0 -209 -262 -301q372 -91 372 -360zM780 1079q0 51 -40.5 89.5t-109.5 60.5t-147.5 32.5t-167.5 12.5
v-410q67 1 127 7t124 21t109.5 38t75 61.5t29.5 87.5zM315 647v-483q104 1 194.5 11.5t182 36.5t145.5 78.5t54 127.5q0 63 -51 109t-138 71t-182.5 36.5t-204.5 12.5z" />
    <glyph glyph-name="uni042F.1" horiz-adv-x="1124" 
d="M780 766v471q-87 0 -164.5 -11t-147.5 -34.5t-111.5 -68.5t-41.5 -107q0 -50 20.5 -90.5t57.5 -66.5t82 -45t99.5 -29t104 -14.5t101.5 -4.5zM782 0v434l-434 -434h-282l581 580q-79 10 -148.5 28t-141 52.5t-122.5 80.5t-83.5 117t-32.5 158q0 86 31 154t75 111t120 74
t137 46t156 23t147.5 9t140.5 1h53v-1434h-197z" />
    <glyph glyph-name="eight.1" horiz-adv-x="0" 
d="M946 0h-772v199h576l-2 448h-576v787h774v-199h-577v-389h577v-846z" />
    <glyph glyph-name="uni0418.3" horiz-adv-x="1372" 
d="M952 1116v318h199v-1434h-199v836l-567 -568v-268h-199v1434h199v-885z" />
    <glyph glyph-name="uni0418.4" horiz-adv-x="1288" 
d="M762 0l-326 1235h-53v-1235h-197v1434h404l313 -1235h49v1235h199v-1434h-389z" />
    <glyph glyph-name="uni0419.1" horiz-adv-x="1372" 
d="M952 1116v318h199v-1434h-199v836l-567 -568v-268h-199v1434h199v-885zM952 1536h-567v178h567v-178z" />
    <glyph glyph-name="r.1" horiz-adv-x="1187" 
d="M360 1237v-471q64 0 123 5.5t123 21.5t110.5 41.5t76.5 68.5t30 98q0 66 -41 114.5t-111.5 73.5t-147 36.5t-163.5 11.5zM694 625l430 -625h-239l-400 580q-55 -7 -127 -11v-569h-196v1434h135q65 0 119 -2t132 -11.5t139 -26t126.5 -47.5t109 -73.5t71.5 -107.5t28 -146
q0 -285 -328 -395z" />
    <glyph glyph-name="m.1" 
d="M1348 1434l235 -1434h-201l-237 1434h203zM1028 494h-201l117 940h201zM266 1434h201l-172 -1434h-201zM668 1434l159 -940h-200l-160 940h201zM258 2714v200h371v-200h-371z" />
    <glyph glyph-name="uni044F.2" horiz-adv-x="1124" 
d="M780 766v471q-87 0 -164.5 -11t-147.5 -34.5t-111.5 -68.5t-41.5 -107q0 -50 20.5 -90.5t57.5 -66.5t82 -45t99.5 -29t104 -14.5t101.5 -4.5zM782 0v434l-434 -434h-282l581 580q-79 10 -148.5 28t-141 52.5t-122.5 80.5t-83.5 117t-32.5 158q0 86 31 154t75 111t120 74
t137 46t156 23t147.5 9t140.5 1h53v-1434h-197z" />
    <glyph glyph-name="R.1" horiz-adv-x="1243" 
d="M360 1237v-471q64 0 123 5.5t123 21.5t110.5 41.5t76.5 68.5t30 98q0 66 -41 114.5t-111.5 73.5t-147 36.5t-163.5 11.5zM885 0l-400 580q-55 -7 -127 -11v-569h-196v1434h135q65 0 119 -2t132 -11.5t139 -26t126.5 -47.5t109 -73.5t71.5 -107.5t28 -146
q0 -285 -328 -395l430 -625h-239z" />
    <glyph glyph-name="R.2" horiz-adv-x="1187" 
d="M360 1237v-471q64 0 123 5.5t123 21.5t110.5 41.5t76.5 68.5t30 98q0 66 -41 114.5t-111.5 73.5t-147 36.5t-163.5 11.5zM694 625l430 -625h-239l-400 580q-55 -7 -127 -11v-569h-196v1434h135q65 0 119 -2t132 -11.5t139 -26t126.5 -47.5t109 -73.5t71.5 -107.5t28 -146
q0 -285 -328 -395z" />
    <glyph glyph-name="r.2" horiz-adv-x="1173" 
d="M373 1237v-471q64 0 123.5 5.5t123.5 21.5t111 41.5t77 68.5t30 98q0 67 -41.5 115t-112 73t-147 36.5t-164.5 11.5zM709 625l428 -625h-238l-401 578q-97 -9 -125 -9v-569h-199v1434h137q65 0 119 -2t132 -11.5t138.5 -26t126 -47.5t108.5 -73.5t71 -107.5t28 -146
q0 -154 -89.5 -250.5t-235.5 -144.5zM709 625l-54 75l-163 -112l6 -10q117 13 211 47z" />
    <glyph glyph-name="n.1" horiz-adv-x="1251" 
d="M727 0l-326 1235h-53v-1235h-198v1434h405l313 -1235h50v1235h198v-1434h-389z" />
    <glyph glyph-name="n.2" horiz-adv-x="1251" 
d="M727 0l-326 1235h-53v-1235h-198v1434h405l313 -1235h50v1235h198v-1434h-389z" />
    <glyph glyph-name="S.1" horiz-adv-x="1212" 
d="M166 68v237q156 -106 381 -106q366 0 366 237q0 54 -42.5 93.5t-110.5 65.5t-150.5 50t-165 55t-150.5 71t-110.5 107t-42.5 156q0 180 159 293t407 113q104 0 211.5 -19t154.5 -45v-213q-54 35 -167 56.5t-210 21.5q-145 0 -250.5 -59.5t-105.5 -147.5q0 -41 26 -72
t70.5 -51.5t102 -37.5t121 -34.5t127 -38t121 -52.5t102 -73t70.5 -104.5t26 -142.5q0 -134 -72 -232.5t-195.5 -148t-283.5 -49.5q-193 0 -389 70z" />
    <glyph glyph-name="S.2" horiz-adv-x="1179" 
d="M133 51v244q154 -109 379 -109q367 0 367 244q0 55 -42.5 95.5t-111 67t-150.5 50.5t-164.5 55.5t-151 72t-111 109t-42.5 158.5q0 122 73.5 217t202.5 147t292 52q102 0 209 -19t157 -46v-218q-55 36 -167 58t-209 22q-147 0 -252.5 -61t-104.5 -152q0 -42 26 -73.5
t70.5 -52t101.5 -38t120.5 -35.5t127 -39t120.5 -53.5t101.5 -74.5t70.5 -106.5t26 -145.5q0 -137 -72 -237.5t-195 -150.5t-282 -50q-191 0 -389 69z" />
    <glyph glyph-name="Z.2" horiz-adv-x="1177" 
d="M1087 199v-199h-972l659 1235h-659v199h972l-659 -1235h659z" />
    <glyph glyph-name="uni0416.1" horiz-adv-x="1558" 
d="M135 774h424l-469 660h244l350 -492v492h199v-494l350 494h244l-469 -660l426 2v-776h-199v578l-352 -3v-575h-199v575h-352v-575h-199z" />
    <glyph glyph-name="quoteright.1" horiz-adv-x="432" 
 />
  </font>
</defs>
</svg>
