<svg width="128" height="90" viewBox="0 0 128 90" fill="none" xmlns="http://www.w3.org/2000/svg">
<g clip-path="url(#clip0_200_2)">
<rect width="127.766" height="90" fill="#FF1053"/>
<path d="M0.0022583 23.7903L14.7714 57.6923L20.3031 52.0036L17.4567 69.3918L39.315 67.0304L37.865 90L77.5536 88.229L79.4334 82.4329L82.1724 86.458L96.8341 83.1843L97.1563 71.2701L120.787 64.8837L109.777 42.6655L127.769 38.1038L117.35 11.4311L94.9007 24.4186L94.0951 11.9141L80.1315 6.92308L68.4773 26.78L60.9048 2.7907L45.706 0L0.0022583 23.7903Z" fill="#FF1053"/>
<path d="M48.6022 9.6597L48.2262 18.8905L46.1317 82.1642L72.4476 81.3055L77.7645 60.6436L84.7463 78.9978L91.1373 77.7098L89.365 42.5577L88.2909 16.6901L83.0814 14.8118L65.7344 48.4611L55.8525 9.55237L48.6022 9.6597Z" fill="white"/>
<path d="M9.18481 26.2432L18.0463 45.9927L28.2504 36.0643L24.9207 63.4346L41.5158 61.6099L36.1452 28.8728L51.2366 14.329L47.2623 7.03027L9.18481 26.2432Z" fill="white"/>
<path d="M114.126 21.7889L119.12 35.0984L102.74 38.9087L111.816 61.8783L95.1139 65.5277L96.6176 40.5724L86.0375 42.5581L84.2115 36.9767L113.696 21.9499" fill="white"/>
</g>
<defs>
<clipPath id="clip0_200_2">
<rect width="127.766" height="90" fill="white"/>
</clipPath>
</defs>
</svg>
