<svg width="823" height="580" viewBox="0 0 823 580" fill="none" xmlns="http://www.w3.org/2000/svg">
<g clip-path="url(#clip0_122_154)">
<path d="M0.00216675 153.315L95.1367 371.795L130.769 335.134L112.434 447.191L253.233 431.974L243.892 580L499.545 568.587L511.653 531.234L529.296 557.174L623.739 536.076L625.814 459.296L778.029 418.14L707.111 274.955L823.002 245.558L755.889 73.6673L611.285 157.364L606.095 76.78L516.15 44.6154L441.08 172.582L392.302 17.9845L294.4 0L0.00216675 153.315Z" fill="#FF1053"/>
<path d="M313.068 62.2518L310.647 121.739L297.155 529.503L466.667 523.969L500.916 390.815L545.889 509.097L587.056 500.797L575.64 274.261L568.721 107.559L535.164 95.4539L423.424 312.305L359.771 61.5601L313.068 62.2518Z" fill="white"/>
<path d="M59.1632 169.123L116.244 296.398L181.973 232.414L160.525 408.801L267.421 397.042L232.827 186.07L330.037 92.3428L304.437 45.3064L59.1632 169.123Z" fill="white" stroke="#FF1053" stroke-width="2" stroke-miterlimit="10"/>
<path d="M735.134 140.417L767.307 226.19L661.794 250.745L720.259 398.772L612.67 422.29L622.357 261.467L554.206 274.264L542.444 238.295L732.367 141.455" fill="white"/>
<path d="M735.134 140.417L767.307 226.19L661.794 250.745L720.259 398.772L612.67 422.29L622.357 261.467L554.206 274.264L542.444 238.295L732.367 141.455" stroke="#FF1053" stroke-width="2" stroke-miterlimit="10"/>
</g>
<defs>
<clipPath id="clip0_122_154">
<rect width="823" height="580" fill="white"/>
</clipPath>
</defs>
</svg>
